<svg id="Layer_1" data-name="Layer 1" xmlns="http://www.w3.org/2000/svg" xmlns:xlink="http://www.w3.org/1999/xlink" viewBox="0 0 1280 1279.86"><defs><style>.cls-1{fill:#fff;stroke:#000;stroke-miterlimit:10;}.cls-2{fill:url(#linear-gradient);}.cls-3{fill:url(#linear-gradient-2);}.cls-4{fill:#989798;}.cls-5{fill:#6f7070;}.cls-6{font-size:80px;fill:#4e4e4e;font-family:Monaco, Monaco;}.cls-7{fill:#f37726;}</style><linearGradient id="linear-gradient" x1="390.76" y1="300.39" x2="757.64" y2="-67.71" gradientTransform="matrix(1, 0, 0, -1, -44.94, 636.91)" gradientUnits="userSpaceOnUse"><stop offset="0" stop-color="#387eb8"/><stop offset="1" stop-color="#366994"/></linearGradient><linearGradient id="linear-gradient-2" x1="675.75" y1="18.45" x2="1049.57" y2="-339.68" gradientTransform="matrix(1, 0, 0, -1, -44.94, 636.91)" gradientUnits="userSpaceOnUse"><stop offset="0" stop-color="#ffe052"/><stop offset="1" stop-color="#ffc331"/></linearGradient></defs><title>DSi4+ Class Sticker</title><path id="path58" class="cls-1" d="M1201.81,640a77.56,77.56,0,0,1,77.57-77.48l-19.12-95.62a77.42,77.42,0,1,1-59.2-143.07l-54.25-81.15a77.44,77.44,0,0,1-109.49-109.55L956.17,79a77.44,77.44,0,1,1-143.1-59.27L717.45.68A77.5,77.5,0,0,1,640,78.16,77.55,77.55,0,0,1,562.47.68L466.84,19.73A77.44,77.44,0,0,1,323.74,79l-81.22,54.24A77.42,77.42,0,1,1,133,242.72L78.85,323.87A77.43,77.43,0,0,1,19.57,466.94l-19,95.62A77.43,77.43,0,0,1,78,640,77.41,77.41,0,0,1,.61,717.44l19,95.69A77.47,77.47,0,0,1,78.85,956.29L133,1037.35a77.45,77.45,0,0,1,109.49,109.56L323.74,1201a77.44,77.44,0,0,1,143.1,59.27l95.63,19a77.49,77.49,0,0,1,155,0l95.62-19A77.44,77.44,0,0,1,956.17,1201l81.15-54.09a77.42,77.42,0,1,1,109.49-109.48l54.25-81.22c-39.55-16.3-58.44-61.71-42-101.09a77.54,77.54,0,0,1,101.27-42l19.05-95.69A77.56,77.56,0,0,1,1201.82,640" transform="translate(0 -0.07)"/><path id="path8615" class="cls-2" d="M635.33,242.27c-18.39,0-53.52.32-82.12,17.92-27,16.61-50.85,35.69-73.61,57.1-41.28,38.85-173.09,191.72-194.71,222-26.39,37-46.68,78.17-46.68,124.9v61c0,119.9,58.47,109.42,113.43,111.62,108.57.38,188.69,0,188.69,0V741.72S536.74,630.7,652,627.29l71.26-2.1s108,4.85,108-101.27V290.19C831.17,232.19,825.21,242.27,635.33,242.27Z" transform="translate(0 -0.07)"/><path id="path8620" class="cls-3" d="M645.21,1038.11c60.6-.07,73,.08,104,.08,57,0,82-31,82-74,0-12.85.06-100.4.06-100.4H637.47v-26.6H972.21c26,0,66-9,66-57,0-.88,0-90,0-94.71-.06-24,0-82.11,0-86.29,0-54-40-59-60-59h-121c1,48-22,69-28,75-19.09,19.09-43.16,36.89-83.74,36.89-.26,0-67.71,0-94.76,4.73-49.64,8.63-81.46,33-81.46,101.65V964.92S567.33,1038.19,645.21,1038.11ZM766,963.75a34.87,34.87,0,1,1,34.86-34.87A34.84,34.84,0,0,1,766,963.75Z" transform="translate(0 -0.07)"/><g id="path"><g id="path10_fill" data-name="path10 fill"><path id="path10_fill-2" data-name="path10 fill" class="cls-4" d="M539.86,975.78a60.23,60.23,0,0,1-8.55,33.65,59.45,59.45,0,0,1-25.66,23.17,58.91,58.91,0,0,1-65.13-10.17,60.09,60.09,0,0,1,5.17-92.34,58.92,58.92,0,0,1,75.05,4.28,60,60,0,0,1,19.12,41.41Z" transform="translate(0 -0.07)"/></g></g><g id="path-2" data-name="path"><g id="path11_fill" data-name="path11 fill"><path id="path11_fill-2" data-name="path11 fill" class="cls-5" d="M367.66,387.43a34.51,34.51,0,0,1-19.57-5.07,34.94,34.94,0,0,1-13.48-15.19,35.33,35.33,0,0,1,5.93-38.54,34.63,34.63,0,0,1,53.73,3.07,35.32,35.32,0,0,1-2.5,44.42,34.66,34.66,0,0,1-24.11,11.31Z" transform="translate(0 -0.07)"/></g></g><text class="cls-6" transform="translate(632.7 786.94)">DSi+4</text><g id="path-3" data-name="path"><g id="path8_fill" data-name="path8 fill"><path id="path8_fill-2" data-name="path8 fill" class="cls-7" d="M906.5,322c-18.71,0-35-6.85-43.54-17a46.57,46.57,0,0,0,16.85,22.58,45.82,45.82,0,0,0,53.39,0A46.57,46.57,0,0,0,950.05,305C941.55,315.18,925.21,322,906.5,322Z" transform="translate(0 -0.07)"/></g></g><g id="path-4" data-name="path"><g id="path9_fill" data-name="path9 fill"><path id="path9_fill-2" data-name="path9 fill" class="cls-7" d="M906.49,256c18.71,0,35,6.86,43.54,17a46.48,46.48,0,0,0-16.85-22.58,45.82,45.82,0,0,0-53.39,0A46.48,46.48,0,0,0,862.94,273C871.44,262.9,887.78,256,906.49,256Z" transform="translate(0 -0.07)"/></g></g></svg>